<?xml version="1.0" encoding="utf-8"?>
<!-- Generator: Adobe Illustrator 19.1.0, SVG Export Plug-In . SVG Version: 6.00 Build 0)  -->
<svg version="1.1" xmlns="http://www.w3.org/2000/svg" xmlns:xlink="http://www.w3.org/1999/xlink" x="0px" y="0px"
	 viewBox="0 0 964.3 356.4" style="enable-background:new 0 0 964.3 356.4;" xml:space="preserve">
<style type="text/css">
	.st0{enable-background:new    ;}
	.st1{fill:#FFFFFF;}
	.st2{fill:#6A6A6A;}
</style>
<g id="Ellipse_2_1_" class="st0">
	<g id="Ellipse_2">
		<g>
			<circle class="st1" cx="172.7" cy="178.9" r="138.8"/>
		</g>
	</g>
</g>
<g id="RChain_1_" class="st0">
	<g id="RChain">
		<g>
			<path d="M176.5,12.7c-91.3,0-165.2,74-165.2,165.2s74,165.2,165.2,165.2s165.2-74,165.2-165.2S267.8,12.7,176.5,12.7z M291,227.3
				c0,22.6-18.1,41-40.6,41c-13.2,0-24.6-6.7-32.1-17c-19,14.5-40,21.1-58.8,22.8V274l-0.9,0.2c-1.9,0-3.6-1.7-3.6-3.6v-17.6
				c0-2.1,1.7-3.6,3.6-3.6h0.9v0c16.6-2.1,34.9-9.1,52-21.2l-0.9-13v-20.9h-24.3c-0.1,0-0.3,0-0.4,0H56.9c-1.9,0-3.6-1.5-3.6-3.6
				v-53.8c0-22.6,18.1-41,40.6-41c13.2,0,24.6,6.7,32.1,17c19-14.5,40-21.1,58.8-22.8v0.1l0.9-0.2c1.9,0,3.6,1.7,3.6,3.6v17.6
				c0,2.1-1.7,3.6-3.6,3.6h-0.9v0c-16.6,2.1-34.9,9.1-52,21.2l0.9,13V170h24.3c0.1,0,0.3,0,0.4,0h129.1c1.9,0,3.6,1.5,3.6,3.6V227.3
				z M230.9,225.3c0,10,8.7,18.6,19.2,18.6c10,0,18.3-8.7,18.3-18.6v-30.7h-37.5V225.3z M94.2,120.5c-10,0-18.3,8.7-18.3,18.6v30.7
				h37.5v-30.7C113.5,129.1,104.8,120.5,94.2,120.5z M572.2,164.4c-0.8-0.8-2.2-0.9-3.2,0c-5.5,4.4-12.1,7.4-19.9,7.4
				c-16.6,0-29.1-13.8-29.1-30c0-16.4,12.3-30.3,29-30.3c7.3,0,14.6,2.9,20,7.7c1,1,2.3,1,3.2,0l7.9-8.2c1-1,1-2.6-0.1-3.6
				c-8.8-7.9-18.3-12.1-31.5-12.1c-26,0-46.9,20.9-46.9,46.9s20.9,46.7,46.9,46.7c11.6,0,22.7-4,31.6-12.6c0.9-0.9,1.2-2.6,0.1-3.5
				L572.2,164.4z M835.9,96.5h-12.1c-1.3,0-2.5,1.2-2.5,2.5V185c0,1.3,1.2,2.5,2.5,2.5h12.1c1.3,0,2.5-1.2,2.5-2.5V99
				C838.4,97.7,837.2,96.5,835.9,96.5z M756.8,96.6c-0.4-0.8-0.9-1.4-2.2-1.4h-1.3c-1.2,0-1.8,0.6-2.2,1.4l-40.4,87.5
				c-0.8,1.7,0.3,3.4,2.2,3.4h11.3c2.1,0,3.2-1.3,3.8-2.6l6.4-14h38.9l6.4,14c0.9,1.8,1.8,2.6,3.8,2.6h11.3c2,0,3-1.7,2.2-3.4
				L756.8,96.6z M740.7,156.4l12.7-28.6h0.4l13,28.6H740.7z M683.7,96.5h-12c-1.4,0-2.5,1.2-2.5,2.5v34.4h-42.4V99
				c0-1.3-1-2.5-2.5-2.5h-12.1c-1.3,0-2.5,1.2-2.5,2.5V185c0,1.3,1.2,2.5,2.5,2.5h12.1c1.4,0,2.5-1.2,2.5-2.5v-35.9h42.4V185
				c0,1.3,1,2.5,2.5,2.5h12c1.3,0,2.5-1.2,2.5-2.5V99C686.2,97.7,685,96.5,683.7,96.5z M949.1,96.5h-12c-1.4,0-2.5,1.2-2.5,2.5v53.7
				h-0.1l-54.1-57.5h-3.2c-1.3,0-2.5,1-2.5,2.3V185c0,1.3,1.2,2.5,2.5,2.5h11.8c1.4,0,2.5-1.2,2.5-2.5v-55.9h0.1l54.3,59.7h3.1
				c1.3,0,2.5-1,2.5-2.3V99C951.6,97.7,950.4,96.5,949.1,96.5z"/>
		</g>
	</g>
</g>
<g id="cooperative_1_" class="st0">
	<g id="cooperative">
		<g>
			<path class="st2" d="M475.6,183.7l-17.8-33c11.3-4.5,19.2-14.3,19.2-26.3c0-15.5-12.7-27.9-28.3-27.9h-37.2
				c-1.4,0-2.5,1.2-2.5,2.5V185c0,1.3,1,2.5,2.5,2.5h12c1.3,0,2.5-1.2,2.5-2.5v-33.1h14.4l17.3,34.4c0.3,0.5,0.9,1.2,2.1,1.2h13.6
				C475.6,187.5,476.5,185.4,475.6,183.7z M447.2,138H426v-25.9h21.2c6.9,0,12.9,5.7,12.9,12.6C460.1,132,454.1,138,447.2,138z
				 M444.4,245c-0.2-0.2-0.6-0.2-1,0.1c-3.6,3-7.5,5-12.7,5c-10.5,0-18.7-8.5-18.7-18.8c0-10.4,8.2-19,18.7-19
				c4.9,0,9.2,1.9,12.7,4.9c0.4,0.4,0.7,0.4,1,0.1l1-1c0.3-0.3,0.2-0.8-0.1-1.1c-3.9-3.5-8.5-5.6-14.6-5.6c-12,0-21.7,9.7-21.7,21.7
				c0,12.1,9.7,21.5,21.7,21.5c5.3,0,10.6-1.9,14.6-5.8c0.3-0.3,0.3-0.8,0-1L444.4,245z M481.7,209.7c-12,0-21.6,9.7-21.6,21.7
				c0,12.1,9.6,21.5,21.6,21.5c12.1,0,21.7-9.5,21.7-21.5C503.4,219.4,493.8,209.7,481.7,209.7z M481.7,250.3
				c-10.5,0-19-8.4-19-18.9s8.5-19,19-19c10.5,0,19,8.5,19,19S492.2,250.3,481.7,250.3z M540.8,209.7c-12,0-21.6,9.7-21.6,21.7
				c0,12.1,9.6,21.5,21.6,21.5c12.1,0,21.7-9.5,21.7-21.5C562.5,219.4,552.9,209.7,540.8,209.7z M540.8,250.3
				c-10.5,0-19-8.4-19-18.9s8.5-19,19-19s19,8.5,19,19S551.3,250.3,540.8,250.3z M594.6,210.3h-12.9c-0.4,0-0.8,0.4-0.8,0.8v40.4
				c0,0.4,0.4,0.8,0.8,0.8h1.1c0.6,0,1-0.4,1-0.8v-14.2h10.9c7.4,0,13.5-5.8,13.5-13.6C608.2,216,602.1,210.3,594.6,210.3z
				 M594.5,234.6h-10.7v-21.5h10.7c5.9,0,10.9,4.2,10.9,10.6C605.4,230.2,600.4,234.6,594.5,234.6z M650.4,210.3h-24.1
				c-0.4,0-0.8,0.4-0.8,0.8v40.4c0,0.4,0.4,0.8,0.8,0.8h24.1c0.4,0,0.8-0.4,0.8-0.8v-1c0-0.4-0.4-0.8-0.8-0.8h-22V232h19
				c0.4,0,0.8-0.4,0.8-0.8v-1c0-0.4-0.4-0.8-0.8-0.8h-19v-16.6h22c0.4,0,0.8-0.4,0.8-0.8v-1C651.1,210.7,650.8,210.3,650.4,210.3z
				 M698.4,223c0-7.3-6.1-12.7-13.4-12.7h-14.9c-0.5,0-0.8,0.4-0.8,0.8v40.4c0,0.4,0.4,0.8,0.8,0.8h1.1c0.6,0,1-0.4,1-0.8v-15.4h11
				c0.8,0,1.4,0,2.2-0.1l8.6,15.5c0.3,0.5,0.5,0.7,1.3,0.7h1.6c0.6,0,0.7-0.6,0.4-1.1l-8.8-15.5C694.2,234.1,698.4,229,698.4,223z
				 M684.9,233.3h-12.7v-20.3h12.6c5.8,0,10.7,4.2,10.7,9.9C695.5,228.9,690.7,233.3,684.9,233.3z M731.3,210.1
				c-0.2-0.4-0.5-0.4-0.8-0.4h-0.2c-0.3,0-0.6,0.2-0.7,0.4l-18.5,41.5c-0.2,0.5,0,0.7,0.4,0.7h1.7c0.4,0,0.7-0.3,0.8-0.5l4.8-11
				h22.9l4.9,11c0.1,0.2,0.4,0.5,0.8,0.5h1.6c0.7,0,0.7-0.4,0.5-0.7L731.3,210.1z M720,238.4l10.4-23.9h0.1l10.3,23.9H720z
				 M785,210.3h-25.8c-0.4,0-0.8,0.3-0.8,0.8v0.9c0,0.5,0.2,0.9,0.8,0.9h11.5v38.6c0,0.4,0.4,0.8,0.8,0.8h1.1c0.6,0,1-0.4,1-0.8
				v-38.6H785c0.5,0,0.8-0.4,0.8-0.8v-1C785.8,210.7,785.5,210.3,785,210.3z M804.4,210.3h-1.3c-0.4,0-0.8,0.4-0.8,0.8v40.4
				c0,0.4,0.4,0.8,0.8,0.8h1.3c0.4,0,0.8-0.3,0.8-0.8v-40.4C805.2,210.7,804.8,210.3,804.4,210.3z M858.2,210.3h-1.6
				c-0.4,0-0.6,0.2-0.7,0.4L839.6,248c-0.1,0-0.1,0-0.1,0l-16.2-37.3c-0.1-0.2-0.3-0.4-0.7-0.4H821c-0.5,0-0.7,0.3-0.5,0.8
				l18.1,41.3c0.1,0.2,0.3,0.5,0.7,0.5h0.3c0.4,0,0.6-0.2,0.7-0.5l18.4-41.2C859,210.7,858.7,210.3,858.2,210.3z M898.7,212.9
				c0.4,0,0.8-0.4,0.8-0.8v-1c0-0.4-0.4-0.8-0.8-0.8h-24.1c-0.4,0-0.8,0.4-0.8,0.8v40.4c0,0.4,0.4,0.8,0.8,0.8h24.1
				c0.4,0,0.8-0.4,0.8-0.8v-1c0-0.4-0.4-0.8-0.8-0.8h-22V232h19c0.4,0,0.8-0.4,0.8-0.8v-1c0-0.4-0.4-0.8-0.8-0.8h-19v-16.6H898.7z"
				/>
		</g>
	</g>
</g>
</svg>
