<?xml version="1.0" encoding="utf-8"?>
<!-- Generator: Adobe Illustrator 19.1.0, SVG Export Plug-In . SVG Version: 6.00 Build 0)  -->
<svg version="1.1" xmlns="http://www.w3.org/2000/svg" xmlns:xlink="http://www.w3.org/1999/xlink" x="0px" y="0px"
	 viewBox="0 0 556.3 584.4" style="enable-background:new 0 0 556.3 584.4;" xml:space="preserve">
<style type="text/css">
	.st0{enable-background:new    ;}
	.st1{fill:#FFFFFF;}
	.st2{fill:#424242;}
	.st3{fill:#0096C3;}
	.st4{fill:#B3B3B3;}
</style>
<g id="Ellipse_1_1_" class="st0">
	<g id="Ellipse_1">
		<g>
			<path class="st1" d="M279.2,363.1c-90.7,0-164.5-73.8-164.5-164.5c0-90.7,73.8-164.5,164.5-164.5c90.7,0,164.5,73.8,164.5,164.5
				C443.7,289.3,370,363.1,279.2,363.1z"/>
		</g>
		<g>
			<path class="st2" d="M279.2,34.3c43.9,0,85.1,17.1,116.1,48.1c31,31,48.1,72.3,48.1,116.1c0,43.9-17.1,85.1-48.1,116.1
				c-31,31-72.3,48.1-116.1,48.1c-43.9,0-85.1-17.1-116.1-48.1c-31-31-48.1-72.3-48.1-116.1c0-43.9,17.1-85.1,48.1-116.1
				C194.1,51.4,235.4,34.3,279.2,34.3 M279.2,33.8c-91,0-164.8,73.8-164.8,164.8c0,91,73.8,164.8,164.8,164.8
				c91,0,164.8-73.8,164.8-164.8C444,107.6,370.2,33.8,279.2,33.8L279.2,33.8z"/>
		</g>
	</g>
</g>
<g id="RChain_3_" class="st0">
	<g id="RChain">
		<g>
			<path class="st3" d="M185.4,131.1c-11.2,0-20.5,9.7-20.5,20.8v34.3h42v-34.3C206.9,140.8,197.2,131.1,185.4,131.1z M338.2,248.3
				c0,11.2,9.7,20.8,21.5,20.8c11.2,0,20.5-9.7,20.5-20.8V214h-42V248.3z M277.4,10.6c-102.1,0-184.8,82.7-184.8,184.8
				s82.7,184.8,184.8,184.8s184.8-82.7,184.8-184.8S379.5,10.6,277.4,10.6z M405.5,250.6c0,25.3-20.3,45.9-45.4,45.9
				c-14.8,0-27.5-7.4-35.9-19.1c-21.2,16.2-44.8,23.6-65.8,25.5v-0.1l-1,0.2c-2.1,0-4-1.9-4-4v-19.7c0-2.3,1.9-4,4-4h1v0
				c18.6-2.3,39.1-10.2,58.2-23.7l-1-14.6v-23.4h-27.2c-0.2,0-0.3,0-0.5,0H143.6c-2.1,0-4-1.7-4-4v-60.2c0-25.3,20.3-45.9,45.4-45.9
				c14.8,0,27.5,7.4,35.9,19.1c21.2-16.2,44.8-23.6,65.8-25.5v0.1l1-0.2c2.1,0,4,1.9,4,4v19.7c0,2.3-1.9,4-4,4h-1v0
				c-18.6,2.3-39.1,10.2-58.2,23.7l1,14.6v23.4h27.2c0.2,0,0.3,0,0.5,0h144.4c2.1,0,4,1.7,4,4V250.6z"/>
		</g>
	</g>
</g>
<g id="RChain_2_" class="st0">
	<g id="RChain_1_">
		<g>
			<path class="st1" d="M169.8,479c-0.8-0.8-2.2-0.9-3.2,0c-5.5,4.4-12.1,7.4-19.9,7.4c-16.6,0-29.1-13.8-29.1-30
				c0-16.4,12.3-30.3,29-30.3c7.3,0,14.6,2.9,20,7.7c1,1,2.3,1,3.2,0l7.9-8.2c1-1,1-2.6-0.1-3.6c-8.8-7.9-18.3-12.1-31.5-12.1
				c-26,0-46.9,20.9-46.9,46.9c0,26,20.9,46.7,46.9,46.7c11.6,0,22.7-4,31.6-12.6c0.9-0.9,1.2-2.6,0.1-3.5L169.8,479z M281.3,411.1
				h-12c-1.4,0-2.5,1.2-2.5,2.5v34.4h-42.4v-34.4c0-1.3-1-2.5-2.5-2.5h-12.1c-1.3,0-2.5,1.2-2.5,2.5v86.1c0,1.3,1.2,2.5,2.5,2.5H222
				c1.4,0,2.5-1.2,2.5-2.5v-35.9h42.4v35.9c0,1.3,1,2.5,2.5,2.5h12c1.3,0,2.5-1.2,2.5-2.5v-86.1
				C283.7,412.3,282.6,411.1,281.3,411.1z M354.4,411.3c-0.4-0.8-0.9-1.4-2.2-1.4h-1.3c-1.2,0-1.8,0.6-2.2,1.4l-40.4,87.5
				c-0.8,1.7,0.3,3.4,2.2,3.4h11.3c2.1,0,3.2-1.3,3.8-2.6l6.4-14h38.9l6.4,14c0.9,1.8,1.8,2.6,3.8,2.6h11.3c2,0,3-1.7,2.2-3.4
				L354.4,411.3z M338.2,471.1l12.7-28.6h0.4l13,28.6H338.2z M433.4,411.1h-12.1c-1.3,0-2.5,1.2-2.5,2.5v86.1c0,1.3,1.2,2.5,2.5,2.5
				h12.1c1.3,0,2.5-1.2,2.5-2.5v-86.1C435.9,412.3,434.7,411.1,433.4,411.1z M546.6,411.1h-12c-1.4,0-2.5,1.2-2.5,2.5v53.7h-0.1
				L478,409.8h-3.2c-1.3,0-2.5,1-2.5,2.3v87.5c0,1.3,1.2,2.5,2.5,2.5h11.8c1.4,0,2.5-1.2,2.5-2.5v-55.9h0.1l54.3,59.7h3.1
				c1.3,0,2.5-1,2.5-2.3v-87.5C549.1,412.3,547.9,411.1,546.6,411.1z"/>
		</g>
	</g>
</g>
<g id="cooperative_1_" class="st0">
	<g id="cooperative">
		<g>
			<path class="st4" d="M74.5,439.1c0-15.5-12.7-27.9-28.3-27.9H9c-1.4,0-2.5,1.2-2.5,2.5v86.1c0,1.3,1,2.5,2.5,2.5h12
				c1.3,0,2.5-1.2,2.5-2.5v-33.1h14.4L55.1,501c0.3,0.5,0.9,1.2,2.1,1.2h13.6c2.2,0,3.1-2.1,2.2-3.8l-17.8-33
				C66.6,460.8,74.5,451,74.5,439.1z M44.7,452.6H23.5v-25.9h21.2c6.9,0,12.9,5.7,12.9,12.6C57.6,446.6,51.6,452.6,44.7,452.6z
				 M68.1,559.7c-0.2-0.2-0.6-0.2-1,0.1c-3.6,3-7.5,5-12.7,5c-10.5,0-18.7-8.5-18.7-18.8c0-10.4,8.2-19,18.7-19
				c4.9,0,9.2,1.9,12.7,4.9c0.4,0.4,0.7,0.4,1,0.1l1-1c0.3-0.3,0.2-0.8-0.1-1.1c-3.9-3.5-8.5-5.6-14.6-5.6c-12,0-21.7,9.7-21.7,21.7
				c0,12.1,9.7,21.5,21.7,21.5c5.3,0,10.6-1.9,14.6-5.8c0.3-0.3,0.3-0.8,0-1L68.1,559.7z M105.4,524.3c-12,0-21.6,9.7-21.6,21.7
				c0,12.1,9.6,21.5,21.6,21.5c12.1,0,21.7-9.5,21.7-21.5C127.1,534,117.5,524.3,105.4,524.3z M105.4,564.9c-10.5,0-19-8.4-19-18.9
				c0-10.5,8.5-19,19-19c10.5,0,19,8.5,19,19C124.4,556.5,115.9,564.9,105.4,564.9z M164.5,524.3c-12,0-21.6,9.7-21.6,21.7
				c0,12.1,9.6,21.5,21.6,21.5c12.1,0,21.7-9.5,21.7-21.5C186.1,534,176.5,524.3,164.5,524.3z M164.5,564.9c-10.5,0-19-8.4-19-18.9
				c0-10.5,8.5-19,19-19c10.5,0,19,8.5,19,19C183.5,556.5,175,564.9,164.5,564.9z M218.3,524.9h-12.9c-0.4,0-0.8,0.4-0.8,0.8v40.4
				c0,0.4,0.4,0.8,0.8,0.8h1.1c0.6,0,1-0.4,1-0.8V552h10.9c7.4,0,13.5-5.8,13.5-13.6C231.9,530.6,225.8,524.9,218.3,524.9z
				 M218.2,549.2h-10.7v-21.5h10.7c5.9,0,10.9,4.2,10.9,10.6C229.1,544.8,224.1,549.2,218.2,549.2z M274,524.9H250
				c-0.4,0-0.8,0.4-0.8,0.8v40.4c0,0.4,0.4,0.8,0.8,0.8H274c0.4,0,0.8-0.4,0.8-0.8v-1c0-0.4-0.4-0.8-0.8-0.8h-22v-17.8h19
				c0.4,0,0.8-0.4,0.8-0.8v-1c0-0.4-0.4-0.8-0.8-0.8h-19v-16.6h22c0.4,0,0.8-0.4,0.8-0.8v-1C274.8,525.3,274.5,524.9,274,524.9z
				 M322.1,537.6c0-7.3-6.1-12.7-13.4-12.7h-14.9c-0.5,0-0.8,0.4-0.8,0.8v40.4c0,0.4,0.4,0.8,0.8,0.8h1.1c0.6,0,1-0.4,1-0.8v-15.4
				h11c0.8,0,1.4,0,2.2-0.1l8.6,15.5c0.3,0.5,0.5,0.7,1.3,0.7h1.6c0.6,0,0.7-0.6,0.4-1.1l-8.8-15.5
				C317.9,548.7,322.1,543.7,322.1,537.6z M308.6,548h-12.7v-20.3h12.6c5.8,0,10.7,4.2,10.7,9.9C319.2,543.5,314.3,548,308.6,548z
				 M355,524.8c-0.2-0.4-0.5-0.4-0.8-0.4H354c-0.3,0-0.6,0.2-0.7,0.4l-18.5,41.5c-0.2,0.5,0,0.7,0.4,0.7h1.7c0.4,0,0.7-0.3,0.8-0.5
				l4.8-11h22.9l4.9,11c0.1,0.2,0.4,0.5,0.8,0.5h1.6c0.7,0,0.7-0.4,0.5-0.7L355,524.8z M343.6,553l10.4-23.9h0.1l10.3,23.9H343.6z
				 M408.7,524.9h-25.8c-0.4,0-0.8,0.3-0.8,0.8v0.9c0,0.5,0.2,0.9,0.8,0.9h11.5v38.6c0,0.4,0.4,0.8,0.8,0.8h1.1c0.6,0,1-0.4,1-0.8
				v-38.6h11.5c0.5,0,0.8-0.4,0.8-0.8v-1C409.5,525.3,409.2,524.9,408.7,524.9z M428.1,524.9h-1.3c-0.4,0-0.8,0.4-0.8,0.8v40.4
				c0,0.4,0.4,0.8,0.8,0.8h1.3c0.4,0,0.8-0.3,0.8-0.8v-40.4C428.9,525.3,428.5,524.9,428.1,524.9z M481.9,524.9h-1.6
				c-0.4,0-0.6,0.2-0.7,0.4l-16.4,37.3c-0.1,0-0.1,0-0.1,0L447,525.4c-0.1-0.2-0.3-0.4-0.7-0.4h-1.6c-0.5,0-0.7,0.3-0.5,0.8
				l18.1,41.3c0.1,0.2,0.3,0.5,0.7,0.5h0.3c0.4,0,0.6-0.2,0.7-0.5l18.4-41.2C482.7,525.3,482.4,524.9,481.9,524.9z M522.4,527.5
				c0.4,0,0.8-0.4,0.8-0.8v-1c0-0.4-0.4-0.8-0.8-0.8h-24.1c-0.4,0-0.8,0.4-0.8,0.8v40.4c0,0.4,0.4,0.8,0.8,0.8h24.1
				c0.4,0,0.8-0.4,0.8-0.8v-1c0-0.4-0.4-0.8-0.8-0.8h-22v-17.8h19c0.4,0,0.8-0.4,0.8-0.8v-1c0-0.4-0.4-0.8-0.8-0.8h-19v-16.6H522.4z
				"/>
		</g>
	</g>
</g>
</svg>
